# xmcd
#
# Track frame offsets:
#	150
#	21084
#	39780
#	60913
#	77543
#	103217
#	122756
#
# Disc length: 1968 seconds
#
# Revision: 1
# Processed by: cddbd v1.5.2PL0 Copyright (c) Steve Scherf et al.
# Submitted via: audiograbber 1.83.01
#
DISCID=4807ae07
DTITLE=Sonny Boy Williamson - Sonny Boy Williamson and Memphis Slim
DYEAR=1964
DGENRE=Blues
TTITLE0=The Skies Are Crying
TTITLE1=Your Funeral And My Trial
TTITLE2=Explain Yourself To Me
TTITLE3=Nine Below Zero
TTITLE4=Fattening Frogs For Snakes
TTITLE5=My One Room Cabin
TTITLE6=Getting Out Of Town
EXTD=
EXTT0=
EXTT1=
EXTT2=
EXTT3=
EXTT4=
EXTT5=
EXTT6=
PLAYORDER=
